<?xml version="1.0" encoding="utf-8"?>
<!-- Generator: Adobe Illustrator 26.4.1, SVG Export Plug-In . SVG Version: 6.00 Build 0)  -->
<svg version="1.1" id="Layer_1" xmlns="http://www.w3.org/2000/svg" xmlns:xlink="http://www.w3.org/1999/xlink" x="0px" y="0px"
	 viewBox="0 0 160.33 148.7" style="enable-background:new 0 0 160.33 148.7;" xml:space="preserve">
<style type="text/css">
	.st0{fill:#F37679;}
</style>
<path class="st0" d="M25.03,118.5C46.1,1.14,76.43,72.64,55.34,80.35c16.69-15.61,41.89,16.19-11.59,26.02
	C32,110.99,25.03,118.5,25.03,118.5z"/>
<g>
	<g>
		<path d="M10.42,142.52c9.72-9.78,14.69-23.15,18.23-36.21c4.13-15.24,7.11-30.86,9-46.52c0.97-8.03,1.6-16.09,1.83-24.18
			c0.1-3.45,0.56-7.38-0.92-10.62c-1.38-3.02-4.86-4.42-7.83-2.77c-2.72,1.51-4.34,4.81-5.22,7.65c-1.12,3.63-1.97,7.38-2.78,11.09
			c-1.65,7.63-2.81,15.37-3.5,23.14c-1.4,15.61-0.8,31.36,1.7,46.83c0.31,1.91,0.65,3.81,1.02,5.71c0.26,1.33,1.85,2.08,3.08,1.75
			c1.39-0.38,2-1.75,1.75-3.08c-2.76-14.25-3.76-28.81-3.08-43.31c0.34-7.21,1.09-14.4,2.29-21.52c0.62-3.66,1.34-7.29,2.18-10.9
			c0.75-3.21,1.34-6.7,2.65-9.73c0.46-1.07,1.1-2.23,1.99-3c0.32-0.27,0.33-0.22,0.61-0.38c-0.24,0.14,0.2,0.09-0.02-0.02
			c0.49,0.26,0-0.19,0.42,0.26c0.49,0.54,0.65,1.73,0.71,2.54c0.12,1.71,0.03,3.44-0.01,5.14c-0.18,7.6-0.71,15.19-1.55,22.74
			c-1.65,14.84-4.48,29.56-8.13,44.03c-3.4,13.48-7.9,27.71-17.94,37.82C4.61,141.27,8.15,144.81,10.42,142.52L10.42,142.52z"/>
	</g>
</g>
<g>
	<g>
		<path d="M27.44,115.05c7.05-20.46,13.06-41.27,18-62.33c1.22-5.18,2.25-10.42,3.52-15.59c1.07-4.35,2.45-8.94,5.45-12.39
			c2.33-2.68,5.66-4.72,9.2-3.76c3.54,0.96,6.11,4.08,7.68,7.26c4.72,9.52-0.41,20.71-5.74,28.77c-1.64,2.47,1.89,4.83,3.93,3.03
			c0.83-0.74,1.99-1.21,2.87-1.28c1.27-0.1,2.23,0.08,3.51,0.62c2.33,1,4.48,3.19,5.66,5.64c1.57,3.25,1.59,7.34,0.98,10.84
			c-0.71,4.09-2.2,7.98-4.02,11.7c-0.6,1.21-0.33,2.7,0.9,3.42c1.1,0.64,2.82,0.32,3.42-0.9c3.51-7.13,6.14-15.16,4.54-23.17
			c-1.19-5.95-5.81-11.64-11.95-12.89c-3.47-0.71-6.78,0.13-9.44,2.49c1.31,1.01,2.62,2.02,3.93,3.03
			c5.63-8.51,10.29-19.41,7.34-29.73c-2.35-8.24-10.54-16.83-19.81-13.26c-10.34,3.98-12.65,16.38-14.74,25.91
			c-2.48,11.3-5.27,22.53-8.36,33.68c-3.5,12.65-7.4,25.18-11.67,37.59c-0.44,1.28,0.5,2.73,1.75,3.08
			C25.74,117.17,27,116.33,27.44,115.05L27.44,115.05z"/>
	</g>
</g>
<g>
	<g>
		<path d="M38.07,115.8c3.72-5.2,10.11-7.13,15.95-8.83c6.97-2.03,13.6-4.45,19.6-8.64c3.62-2.53,6.94-5.45,9.9-8.72
			c2.16-2.38-1.37-5.93-3.54-3.54c-5.05,5.58-11.18,10.18-18.15,13.09c-6.25,2.61-13.06,3.61-19.17,6.62
			c-3.57,1.76-6.6,4.26-8.91,7.5c-0.79,1.1-0.19,2.78,0.9,3.42C35.91,117.43,37.29,116.9,38.07,115.8L38.07,115.8z"/>
	</g>
</g>
<g id="Layer_2">
</g>
<path class="st0" d="M96.34,82.78c17.46-88.11,42.59-34.43,25.12-28.65c13.83-11.72,34.71,12.15-9.6,19.53
	C102.12,77.14,96.34,82.78,96.34,82.78z"/>
<g>
	<g>
		<path d="M84.54,100.36c7.73-6.91,12.03-16.64,15.05-26.37c3.51-11.3,6.03-22.98,7.61-34.7c0.83-6.12,1.38-12.27,1.56-18.44
			c0.07-2.52,0.36-5.38-0.86-7.7c-1.2-2.27-3.9-3.45-6.34-2.53c-2.44,0.92-4,3.28-4.95,5.6c-1.05,2.58-1.71,5.38-2.38,8.08
			c-1.42,5.67-2.42,11.45-3.04,17.26c-1.41,13.18-0.63,26.55,2.2,39.49c0.69,3.14,5.51,1.81,4.82-1.33
			c-2.29-10.48-3.11-21.23-2.52-31.95c0.29-5.24,0.92-10.45,1.92-15.61c0.51-2.65,1.11-5.28,1.8-7.88c0.6-2.28,1.07-4.86,2.17-6.95
			c0.36-0.67,0.78-1.39,1.39-1.86c0.01,0,0.33-0.28,0.2-0.15c0.1-0.1,0.4,0,0.18-0.05c-0.25-0.06,0.07,0.02,0.1,0.12
			c0.53,1.86,0.38,3.91,0.31,5.93c-0.18,5.62-0.65,11.24-1.39,16.82c-1.42,10.81-3.79,21.54-6.83,32.01
			c-2.84,9.8-6.74,19.71-14.52,26.67C78.6,98.98,82.15,102.5,84.54,100.36L84.54,100.36z"/>
	</g>
</g>
<g>
	<g>
		<path d="M98.75,79.88c5.84-15.03,10.84-30.39,14.97-45.98c1-3.77,1.84-7.59,2.89-11.35c0.91-3.26,2.13-6.54,4.61-8.96
			c1.87-1.83,4.46-3,7.07-2.35c2.61,0.65,4.67,2.62,5.97,4.91c3.9,6.87-0.54,14.96-4.71,20.56c-0.73,0.99-0.26,2.55,0.64,3.23
			c1.08,0.81,2.27,0.59,3.28-0.2c1.3-1.01,3.17-0.93,4.83-0.32c1.7,0.61,3.36,1.97,4.32,3.59c2.92,4.94,0.16,11.57-2.37,16.14
			c-1.56,2.82,2.76,5.34,4.32,2.52c3.53-6.39,6.57-15.34,1.85-21.97c-3.74-5.26-11.09-7.7-16.49-3.5c1.31,1.01,2.62,2.02,3.93,3.03
			c4.59-6.16,8.6-14.41,6.16-22.24c-2.09-6.7-8.71-12.35-16.01-10.61c-8.36,1.99-11.32,10.97-13.12,18.31
			c-2.11,8.6-4.47,17.13-7.09,25.58c-2.96,9.53-6.26,18.95-9.87,28.26c-0.49,1.26,0.54,2.74,1.75,3.08
			C97.09,82.02,98.26,81.15,98.75,79.88L98.75,79.88z"/>
	</g>
</g>
<g>
	<g>
		<path d="M107.13,81.1c4.31-5.31,11.67-6.1,17.84-7.88c7.58-2.19,14.5-6.22,20.15-11.73c2.31-2.25-1.23-5.79-3.54-3.54
			c-5.44,5.32-12.05,8.87-19.37,10.84c-6.61,1.78-14.06,3.16-18.62,8.77c-0.85,1.05-1.02,2.51,0,3.54
			C104.47,81.97,106.27,82.15,107.13,81.1L107.13,81.1z"/>
	</g>
</g>
</svg>
